<svg width="120" height="120" viewBox="0 0 120 120" fill="none" xmlns="http://www.w3.org/2000/svg">
<path fill-rule="evenodd" clip-rule="evenodd" d="M84.585 34.525C84.585 43.1775 82.435 54.4625 79.1275 52.75C77.775 57.1668 74.9356 60.9793 71.0913 63.5403C67.247 66.1012 62.6348 67.2527 58.0379 66.7993C53.441 66.3458 49.1427 64.3153 45.8729 61.0525C42.6031 57.7898 40.5634 53.4959 40.1 48.9C36.8175 43.1575 32.5125 31.65 43.58 22.68C43.78 22.615 43.9 22.075 44.08 21.28C44.765 18.2725 46.2825 11.5875 55.855 12.865C63.2375 13.8475 84.585 17.66 84.585 34.5275V34.525ZM75.07 39.98C75.07 39.98 73.94 43.285 75 46.9675C74.9862 50.8939 73.4334 54.6585 70.675 57.4528C67.9165 60.2471 64.1723 61.8484 60.2464 61.9129C56.3204 61.9773 52.5257 60.4998 49.677 57.7976C46.8283 55.0954 45.1527 51.3839 45.01 47.46C45.3725 46.085 45.3725 43.7575 45.37 41.17C45.3675 36.5025 45.3625 30.995 47.5 28.75C62.4725 38.7225 75.07 39.98 75.07 39.98Z" fill="#B7B7B7"/>
<path d="M32.5 90C32.5 87.295 33.9325 84.925 36.0825 83.605C36.0006 83.2938 35.924 82.9813 35.8525 82.6675C35.4731 80.9596 35.1769 79.2342 34.965 77.4975C34.7502 75.8336 34.6209 74.1597 34.5775 72.4825C24.025 76.625 15 83.845 15 91.425V105H105V91.425C105 84.165 96.725 77.2375 86.755 73.025V73.095C86.8 74.62 86.715 76.37 86.55 78.0525C86.4 79.6125 86.1775 81.1675 85.91 82.5H87.5C87.9642 82.5003 88.4191 82.6297 88.8138 82.8739C89.2085 83.1181 89.5275 83.4673 89.735 83.8825L92.235 88.8825C92.41 89.23 92.5 89.6125 92.5 90V95C92.5 95.6631 92.2366 96.299 91.7678 96.7678C91.2989 97.2366 90.663 97.5 90 97.5H85V92.5H87.5V90.59L85.955 87.5H79.045L77.5 90.59V92.5H80V97.5H75C74.337 97.5 73.7011 97.2366 73.2322 96.7678C72.7634 96.299 72.5 95.6631 72.5 95V90C72.5 89.6125 72.59 89.23 72.765 88.8825L75.265 83.8825C75.4725 83.4673 75.7914 83.1181 76.1862 82.8739C76.5809 82.6297 77.0358 82.5003 77.5 82.5H80.7875C80.8425 82.285 80.8975 82.0475 80.9525 81.785C81.2025 80.6075 81.425 79.115 81.575 77.5725C81.725 76.0275 81.795 74.495 81.7575 73.235C81.7481 72.713 81.7072 72.1921 81.635 71.675C81.58 71.32 81.525 71.1575 81.515 71.1225C81.5125 71.115 81.51 71.1125 81.515 71.1175L81.5225 71.115C80.196 70.7029 78.8542 70.3418 77.5 70.0325C76.2425 69.745 74.9425 71.475 74.375 72.5575H45C44.927 72.4182 44.8553 72.2782 44.785 72.1375C44.255 71.0825 43.6025 69.78 42.5 70.0325C41.5375 70.25 40.575 70.5 39.6125 70.775C39.5815 71.2135 39.5681 71.653 39.5725 72.0925C39.5825 73.475 39.715 75.1675 39.9275 76.8775C40.14 78.5825 40.4275 80.2425 40.7275 81.5525C40.8125 81.93 40.8975 82.27 40.9775 82.5625C42.4068 82.7504 43.7516 83.3462 44.8511 84.2787C45.9505 85.2111 46.7579 86.4406 47.1766 87.82C47.5954 89.1994 47.6077 90.6703 47.2121 92.0566C46.8165 93.4428 46.0298 94.6857 44.9462 95.6364C43.8625 96.5871 42.5279 97.2054 41.1019 97.4172C39.676 97.629 38.2192 97.4253 36.906 96.8306C35.5928 96.2359 34.4788 95.2754 33.6974 94.064C32.916 92.8526 32.5003 91.4416 32.5 90Z" fill="#B7B7B7"/>
<path d="M42.5 90C42.5 91.435 41.345 92.5375 40 92.5375C38.655 92.5375 37.5 91.4375 37.5 90C37.5 88.565 38.655 87.4625 40 87.4625C41.345 87.4625 42.5 88.5625 42.5 90Z" fill="#B7B7B7"/>
</svg>
